<?xml version="1.0"?>
<svg width="128" height="128" xmlns="http://www.w3.org/2000/svg" xmlns:svg="http://www.w3.org/2000/svg">
 <!-- Created with SVG-edit - https://github.com/SVG-Edit/svgedit-->

 <g class="layer" display="inline">
  <title>Layer 1</title>
  <rect fill="#f49a9a" height="15" id="svg_7" rx="5" ry="5" stroke="#808182" stroke-width="2" transform="matrix(1 0 0 1 0 0) matrix(0.707107 -0.707107 0.707107 0.707107 6.93577 61.7444)" width="30" x="63" y="15"/>
  <rect fill="#abcbfc" height="80" id="svg_3" stroke="#808182" stroke-width="2" transform="matrix(1 0 0 1 0 0)" width="90" x="19" y="39"/>
  <rect fill="#f49a9a" height="15" id="svg_9" rx="5" ry="5" stroke="#808182" stroke-width="2" transform="matrix(1 0 0 1 0 0) matrix(0.766044 0.642788 -0.642788 0.766044 26.1605 -26.8754)" width="30" x="35" y="15"/>
  <rect fill="#abcbfc" height="15" id="svg_4" stroke="#808182" stroke-width="2" transform="matrix(1 0 0 1 0 0)" width="110" x="9" y="24"/>
  <rect fill="#f49a9a" height="95" id="svg_5" stroke="#808182" stroke-width="2" width="16" x="56" y="24"/>
 </g>
</svg>